<!-- Generated by IcoMoon.io -->
<svg version="1.1" xmlns="http://www.w3.org/2000/svg" width="1024" height="1024" viewBox="0 0 1024 1024">
<title></title>
<g id="icomoon-ignore">
</g>
<path d="M869.985 773.080c0 0-485.53 0-509.456 0s-100.747-27.443-109.622-124.558h441.056c62.822 0 95.141-2.116 142.66-49.391 149.754-149.030 135.89-386.536 134.622-397.595-2.014-17.477-16.077-30.892-33.326-30.892h-702.173c-31.043-123.19-117.040-153.209-173.937-157.715-28.444 0-55.891 11.723-59.474 48.69-3.55 37.002 21.413 60.145 59.474 70.916 17.481 2.116 74.477 20.461 74.477 120.031v377.797c0 84.554 30.307 148.861 75.549 192.040-43.869 10.991-76.587 51.035-76.587 99.197 0 56.559 45.008 102.4 100.497 102.4 55.422 0 99.392-45.329 99.392-101.854 0-13.824-1.708-27.546-6.597-39.561 15.773 3.174 31.813 4.198 47.821 4.198h267.333c-3.715 10.718-6.127 22.767-6.127 34.816 0 56.559 45.005 102.4 100.494 102.4 55.427 0 99.396-45.329 99.396-101.854 0-12.049-1.377-24.644-5.092-35.362h39.617c36.972 0 68.432-20.144 68.432-57.862s-31.46-55.842-68.432-55.842z"></path>
</svg>
