<!-- Generated by IcoMoon.io -->
<svg version="1.1" xmlns="http://www.w3.org/2000/svg" width="1024" height="1024" viewBox="0 0 1024 1024">
<title></title>
<g id="icomoon-ignore">
</g>
<path d="M584.224 511.962l424.45-424.448c19.968-19.968 19.968-52.224 0-72.192s-52.224-19.968-72.192 0l-424.45 424.448-424.448-424.96c-19.968-19.968-52.224-19.968-72.192 0s-19.968 52.224 0 72.192l424.448 424.96-424.448 424.444c-19.968 19.968-19.968 52.224 0 72.192 9.728 10.24 22.528 15.36 35.84 15.36s26.112-5.12 36.352-14.848l424.448-424.956 424.45 424.444c10.24 10.24 23.040 15.36 36.352 15.36s26.112-5.12 36.352-14.848c19.968-19.968 19.968-52.224 0-72.192l-424.962-424.956z"></path>
</svg>
