<svg width="18" height="19" viewBox="0 0 18 19" fill="none" xmlns="http://www.w3.org/2000/svg">
<path d="M16.2819 7.01494C14.6537 7.01494 13.988 5.87074 14.7976 4.4673C15.2654 3.65385 14.9865 2.61692 14.1679 2.15208L12.6117 1.26712C11.901 0.84698 10.9835 1.09727 10.5607 1.80346L10.4618 1.9733C9.65217 3.37674 8.32084 3.37674 7.50225 1.9733L7.4033 1.80346C6.9985 1.09727 6.08096 0.84698 5.37031 1.26712L3.81409 2.15208C2.9955 2.61692 2.71664 3.66279 3.18441 4.47624C4.003 5.87074 3.33733 7.01494 1.70915 7.01494C0.773613 7.01494 0 7.77476 0 8.71336V10.2866C0 11.2163 0.764618 11.9851 1.70915 11.9851C3.33733 11.9851 4.003 13.1293 3.18441 14.5327C2.71664 15.3462 2.9955 16.3831 3.81409 16.8479L5.37031 17.7329C6.08096 18.153 6.9985 17.9027 7.42129 17.1965L7.52024 17.0267C8.32983 15.6233 9.66117 15.6233 10.4798 17.0267L10.5787 17.1965C11.0015 17.9027 11.919 18.153 12.6297 17.7329L14.1859 16.8479C15.0045 16.3831 15.2834 15.3372 14.8156 14.5327C13.997 13.1293 14.6627 11.9851 16.2909 11.9851C17.2264 11.9851 18 11.2252 18 10.2866V8.71336C17.991 7.7837 17.2264 7.01494 16.2819 7.01494ZM8.9955 12.4052C7.38531 12.4052 6.07196 11.1001 6.07196 9.5C6.07196 7.89991 7.38531 6.5948 8.9955 6.5948C10.6057 6.5948 11.919 7.89991 11.919 9.5C11.919 11.1001 10.6057 12.4052 8.9955 12.4052Z" fill="#5D5895"/>
</svg>
